<svg xmlns="http://www.w3.org/2000/svg" width="100" height="100">
  <g fill="none" fill-rule="evenodd">
    <path fill="#05BCFE" d="M0 9.82C0 4.4 4.4 0 9.82 0h80.36C95.6 0 100 4.4 100 9.82v80.36c0 5.43-4.4 9.82-9.82 9.82H9.82C4.4 100 0 95.6 0 90.18V9.82z"/>
    <path fill="#FFF" d="M12.5 5.36h75c3.95 0 7.14 3.2 7.14 7.13v75c0 3.9-3.2 7.1-7.13 7.1h-75c-3.9 0-7.1-3.2-7.1-7.15v-75c0-3.96 3.2-7.15 7.15-7.15z"/>
    <path fill="#05BCFE" d="M35.9 64.8l-5.44 5.44V55.77h14.47L39.5 61.2c6 5.98 15.7 5.98 21.7 0 1.82-1.83 3.1-4.02 3.8-6.33h5.27c-.8 3.63-2.62 7.1-5.46 9.94-7.92 8-20.9 8-28.9 0zm25.3-25.3c-6-5.98-15.7-5.98-21.7 0-1.82 1.83-3.1 4.02-3.8 6.33h-5.27c.8-3.63 2.62-7.1 5.46-9.94 7.92-8 20.9-8 28.9 0l5.4-5.5v14.5H55.75l5.43-5.43zM22.73 74.1l3.8 3.8-19.4 19.4-3.8-3.8zm5.37 8.04l3.78 3.8-13.5 13.47-3.78-3.72zM93.26 2.7l3.8 3.78L74.32 29.2l-3.8-3.8zM85.36.76l3.8 3.8L75.2 18.48l-3.78-3.8zM96.2 9.58l3.78 3.8L86.83 26.5l-3.8-3.8z"/>
  </g>
</svg>
